<?xml version="1.0" standalone="no"?>
<!DOCTYPE svg PUBLIC "-//W3C//DTD SVG 20010904//EN"
 "http://www.w3.org/TR/2001/REC-SVG-20010904/DTD/svg10.dtd">
<svg version="1.0" xmlns="http://www.w3.org/2000/svg"
 width="351.000000pt" height="177.000000pt" viewBox="0 0 351.000000 177.000000"
 preserveAspectRatio="xMidYMid meet">

<g transform="translate(0.000000,177.000000) scale(0.100000,-0.100000)"
fill="#000000" stroke="none">
<path d="M580 1735 c-147 -24 -254 -78 -343 -174 -120 -129 -160 -340 -92
-488 70 -154 232 -248 555 -322 159 -36 276 -74 303 -98 71 -64 58 -203 -26
-267 -77 -59 -249 -71 -369 -26 -100 37 -178 127 -207 238 l-12 42 -174 0
c-96 0 -176 -3 -178 -7 -2 -5 2 -44 9 -88 35 -206 184 -386 390 -469 145 -59
381 -75 543 -36 218 53 382 204 422 391 17 79 6 231 -21 304 -32 82 -119 169
-220 218 -69 34 -128 52 -425 132 -133 35 -221 78 -246 118 -33 54 -24 103 30
160 35 39 83 57 163 64 173 15 296 -59 323 -194 l12 -58 168 -3 c93 -1 172 1
176 5 17 17 -21 178 -61 259 -69 142 -212 251 -379 290 -93 21 -243 26 -341 9z"/>
<path d="M1612 1553 l3 -158 393 -3 c215 -1 392 -5 392 -7 0 -3 -182 -240
-405 -528 l-404 -522 -1 -142 0 -143 635 0 635 0 0 160 0 160 -415 0 -414 0
409 530 410 529 0 141 0 140 -620 0 -621 0 3 -157z"/>
<path d="M3182 477 c-157 -57 -198 -263 -75 -379 81 -78 225 -78 306 0 97 92
94 260 -6 336 -70 54 -151 69 -225 43z"/>
</g>
</svg>
